<svg width="37" height="36" viewBox="0 0 37 36" fill="none" xmlns="http://www.w3.org/2000/svg">
<rect width="36" height="36" transform="translate(0.220001)" fill="#242424"/>
<g clip-path="url(#clip0_0_247)">
<path d="M17.4622 19.2188C17.4622 19.4062 17.5455 19.5898 17.7122 19.7695C17.8789 19.9492 18.0807 20.1263 18.3177 20.3008C18.5546 20.4753 18.7903 20.6667 19.0247 20.875C19.2591 21.0833 19.4596 21.3542 19.6263 21.6875C19.7929 22.0208 19.8763 22.3906 19.8763 22.7969C19.8763 23.2656 19.7513 23.7161 19.5013 24.1484C19.1263 24.7839 18.5768 25.2513 17.8528 25.5508C17.1289 25.8503 16.3528 26 15.5247 26C14.8372 26 14.1953 25.8919 13.5989 25.6758C13.0026 25.4596 12.5559 25.1016 12.2591 24.6016C12.0664 24.2891 11.97 23.9479 11.97 23.5781C11.97 23.1562 12.0859 22.7656 12.3177 22.4062C12.5494 22.0469 12.858 21.7474 13.2434 21.5078C13.9257 21.0807 14.9778 20.8203 16.3997 20.7266C16.233 20.5078 16.1093 20.3151 16.0286 20.1484C15.9479 19.9818 15.9075 19.7917 15.9075 19.5781C15.9075 19.3906 15.9622 19.1693 16.0716 18.9141C15.832 18.9349 15.6549 18.9453 15.5403 18.9453C14.7695 18.9453 14.1197 18.694 13.5911 18.1914C13.0624 17.6888 12.7981 17.0521 12.7981 16.2812C12.7981 15.8542 12.8919 15.4401 13.0794 15.0391C13.2669 14.638 13.5247 14.2969 13.8528 14.0156C14.2539 13.6719 14.7291 13.4167 15.2786 13.25C15.8281 13.0833 16.3945 13 16.9778 13H20.2434L19.1653 13.6875H18.1419C18.5273 14.0156 18.819 14.362 19.0169 14.7266C19.2148 15.0911 19.3138 15.5078 19.3138 15.9766C19.3138 16.3516 19.2499 16.6888 19.1223 16.9883C18.9947 17.2878 18.8411 17.5299 18.6614 17.7148C18.4817 17.8997 18.3007 18.069 18.1184 18.2227C17.9361 18.3763 17.7812 18.5365 17.6536 18.7031C17.526 18.8698 17.4622 19.0417 17.4622 19.2188ZM16.3216 18.4688C16.5195 18.4688 16.7226 18.4258 16.9309 18.3398C17.1393 18.2539 17.3111 18.1406 17.4466 18C17.7226 17.7031 17.8606 17.2891 17.8606 16.7578C17.8606 16.4557 17.8164 16.1302 17.7278 15.7812C17.6393 15.4323 17.513 15.0951 17.3489 14.7695C17.1848 14.444 16.9648 14.1745 16.6888 13.9609C16.4127 13.7474 16.108 13.6406 15.7747 13.6406C15.5559 13.6406 15.3411 13.6914 15.1302 13.793C14.9192 13.8945 14.7486 14.0312 14.6184 14.2031C14.3736 14.5104 14.2513 14.9271 14.2513 15.4531C14.2513 15.6927 14.2773 15.9466 14.3294 16.2148C14.3815 16.4831 14.4635 16.7513 14.5755 17.0195C14.6874 17.2878 14.8229 17.5286 14.9817 17.7422C15.1406 17.9557 15.3359 18.1302 15.5677 18.2656C15.7994 18.401 16.0507 18.4688 16.3216 18.4688ZM16.3372 25.2891C16.6393 25.2891 16.9296 25.2552 17.2083 25.1875C17.4869 25.1198 17.7447 25.0182 17.9817 24.8828C18.2187 24.7474 18.4088 24.5573 18.552 24.3125C18.6953 24.0677 18.7669 23.7839 18.7669 23.4609C18.7669 23.3307 18.7486 23.2031 18.7122 23.0781C18.6757 22.9531 18.638 22.8438 18.5989 22.75C18.5598 22.6562 18.4895 22.5482 18.388 22.4258C18.2864 22.3034 18.2096 22.2122 18.1575 22.1523C18.1054 22.0924 18.0052 22.0026 17.8567 21.8828C17.7083 21.763 17.6132 21.6875 17.5716 21.6562C17.5299 21.625 17.4218 21.5469 17.2473 21.4219C17.0729 21.2969 16.9778 21.2292 16.9622 21.2188C16.8789 21.2083 16.7539 21.2031 16.5872 21.2031C16.3111 21.2031 16.0377 21.2214 15.7669 21.2578C15.496 21.2943 15.2161 21.3594 14.927 21.4531C14.638 21.5469 14.3854 21.6667 14.1692 21.8125C13.9531 21.9583 13.7747 22.1523 13.6341 22.3945C13.4934 22.6367 13.4231 22.9115 13.4231 23.2188C13.4231 23.5833 13.5143 23.9049 13.6966 24.1836C13.8789 24.4622 14.1171 24.6784 14.4114 24.832C14.7057 24.9857 15.0156 25.1003 15.3411 25.1758C15.6666 25.2513 15.9986 25.2891 16.3372 25.2891ZM22.6653 18.4453H24.3294V19.2891H22.6653V21H21.845V19.2891H20.1888V18.4453H21.845V16.75H22.6653V18.4453Z" fill="white"/>
</g>
<defs>
<clipPath id="clip0_0_247">
<rect width="13" height="14" fill="white" transform="matrix(1 0 0 -1 11.72 27)"/>
</clipPath>
</defs>
</svg>
