<svg width="37" height="36" viewBox="0 0 37 36" fill="none" xmlns="http://www.w3.org/2000/svg">
<rect width="36" height="36" transform="translate(0.109985)" fill="#242424"/>
<g clip-path="url(#clip0_0_250)">
<path d="M14.8365 17.8828V25.625H12.2584V17.8828H14.8365ZM15.0006 15.4922C15.0058 15.8724 14.8743 16.1901 14.6061 16.4453C14.3378 16.7005 13.985 16.8281 13.5475 16.8281H13.5319C13.1048 16.8281 12.761 16.7005 12.5006 16.4453C12.2402 16.1901 12.11 15.8724 12.11 15.4922C12.11 15.1068 12.2441 14.7878 12.5123 14.5352C12.7806 14.2826 13.1308 14.1562 13.5631 14.1562C13.9954 14.1562 14.3418 14.2826 14.6022 14.5352C14.8626 14.7878 14.9954 15.1068 15.0006 15.4922ZM24.11 21.1875V25.625H21.5397V21.4844C21.5397 20.9375 21.4342 20.5091 21.2233 20.1992C21.0123 19.8893 20.6829 19.7344 20.235 19.7344C19.9069 19.7344 19.6321 19.8242 19.4108 20.0039C19.1894 20.1836 19.024 20.4062 18.9147 20.6719C18.8574 20.8281 18.8287 21.0391 18.8287 21.3047V25.625H16.2584C16.2688 23.5469 16.274 21.862 16.274 20.5703C16.274 19.2786 16.2714 18.5078 16.2662 18.2578L16.2584 17.8828H18.8287V19.0078H18.8131C18.9173 18.8411 19.024 18.6953 19.1334 18.5703C19.2428 18.4453 19.3899 18.3099 19.5748 18.1641C19.7597 18.0182 19.9863 17.9049 20.2545 17.8242C20.5227 17.7435 20.8209 17.7031 21.149 17.7031C22.0397 17.7031 22.7558 17.9987 23.2975 18.5898C23.8392 19.181 24.11 20.0469 24.11 21.1875Z" fill="white"/>
</g>
<defs>
<clipPath id="clip0_0_250">
<rect width="12" height="14" fill="white" transform="matrix(1 0 0 -1 12.11 27)"/>
</clipPath>
</defs>
</svg>
