<svg width="36" height="36" viewBox="0 0 36 36" fill="none" xmlns="http://www.w3.org/2000/svg">
<rect width="36" height="36" fill="#242424"/>
<path d="M20 24.7188C19.7812 23.4635 19.4167 22.1667 18.9062 20.8281H18.8906L18.875 20.8359C18.7917 20.8672 18.6797 20.9102 18.5391 20.9648C18.3984 21.0195 18.1354 21.1471 17.75 21.3477C17.3646 21.5482 17.0078 21.7617 16.6797 21.9883C16.3516 22.2148 16.0104 22.513 15.6562 22.8828C15.3021 23.2526 15.0339 23.638 14.8516 24.0391L14.7344 23.9531C15.6927 24.7344 16.7812 25.125 18 25.125C18.6875 25.125 19.3542 24.9896 20 24.7188ZM18.5547 19.9766C18.4453 19.7214 18.3073 19.4323 18.1406 19.1094C16.5208 19.5938 14.7682 19.8359 12.8828 19.8359C12.8776 19.8724 12.875 19.9271 12.875 20C12.875 20.6458 12.9896 21.2617 13.2188 21.8477C13.4479 22.4336 13.7708 22.9583 14.1875 23.4219C14.4479 22.9583 14.7695 22.5247 15.1523 22.1211C15.5352 21.7174 15.9062 21.3932 16.2656 21.1484C16.625 20.9036 16.9648 20.6927 17.2852 20.5156C17.6055 20.3385 17.8646 20.2135 18.0625 20.1406L18.3516 20.0391C18.3724 20.0339 18.4062 20.0247 18.4531 20.0117C18.5 19.9987 18.5339 19.987 18.5547 19.9766ZM17.7188 18.3203C17.0938 17.2109 16.4583 16.2266 15.8125 15.3672C15.0938 15.7057 14.4844 16.1901 13.9844 16.8203C13.4844 17.4505 13.151 18.1589 12.9844 18.9453C14.5573 18.9453 16.1354 18.737 17.7188 18.3203ZM23.0625 20.8125C21.9688 20.5 20.9036 20.4245 19.8672 20.5859C20.3203 21.8307 20.6536 23.0521 20.8672 24.25C21.4453 23.8594 21.9271 23.3659 22.3125 22.7695C22.6979 22.1732 22.9479 21.5208 23.0625 20.8125ZM21.3828 16.1562C20.4193 15.3021 19.2917 14.875 18 14.875C17.6042 14.875 17.2005 14.9245 16.7891 15.0234C17.4714 15.9089 18.112 16.9036 18.7109 18.0078C19.0703 17.8724 19.4089 17.7148 19.7266 17.5352C20.0443 17.3555 20.2956 17.1953 20.4805 17.0547C20.6654 16.9141 20.8359 16.7656 20.9922 16.6094C21.1484 16.4531 21.2461 16.3477 21.2852 16.293C21.3242 16.2383 21.3568 16.1927 21.3828 16.1562ZM23.125 19.9453C23.1094 18.737 22.7214 17.6693 21.9609 16.7422L21.9531 16.75C21.9062 16.8125 21.8568 16.8763 21.8047 16.9414C21.7526 17.0065 21.6393 17.1224 21.4648 17.2891C21.2904 17.4557 21.1055 17.6133 20.9102 17.7617C20.7148 17.9102 20.4544 18.0794 20.1289 18.2695C19.8034 18.4596 19.4609 18.6276 19.1016 18.7734C19.2318 19.0495 19.3464 19.2969 19.4453 19.5156C19.4557 19.5469 19.4727 19.5924 19.4961 19.6523C19.5195 19.7122 19.5391 19.7552 19.5547 19.7812C19.7422 19.7552 19.9362 19.737 20.1367 19.7266C20.3372 19.7161 20.5286 19.7109 20.7109 19.7109C20.8932 19.7109 21.0729 19.7148 21.25 19.7227C21.4271 19.7305 21.5938 19.7409 21.75 19.7539C21.9062 19.7669 22.0534 19.7812 22.1914 19.7969C22.3294 19.8125 22.4544 19.8294 22.5664 19.8477C22.6784 19.8659 22.7734 19.8815 22.8516 19.8945C22.9297 19.9076 22.9948 19.9193 23.0469 19.9297L23.125 19.9453ZM23.1953 16.9883C23.1953 16.9883 23.3294 17.2181 23.5977 17.6777C23.8659 18.1374 24 18.9115 24 20C24 21.0885 23.7318 22.0924 23.1953 23.0117C22.6589 23.931 21.931 24.6589 21.0117 25.1953C20.0924 25.7318 19.0885 26 18 26C16.9115 26 15.9076 25.7318 14.9883 25.1953C14.069 24.6589 13.3411 23.931 12.8047 23.0117C12.2682 22.0924 12 21.0885 12 20C12 18.9115 12.2682 17.9076 12.8047 16.9883C13.3411 16.069 14.069 15.3411 14.9883 14.8047C15.9076 14.2682 16.9115 14 18 14C19.0885 14 20.0924 14.2682 21.0117 14.8047C21.931 15.3411 22.6589 16.069 23.1953 16.9883Z" fill="white"/>
</svg>
