<svg width="37" height="36" viewBox="0 0 37 36" fill="none" xmlns="http://www.w3.org/2000/svg">
<rect width="36" height="36" transform="translate(0.440002)" fill="#242424"/>
<g clip-path="url(#clip0_0_241)">
<path d="M24.5963 16.1875C24.2473 16.6979 23.8254 17.1328 23.3306 17.4922C23.3358 17.5651 23.3384 17.6745 23.3384 17.8203C23.3384 18.4974 23.2395 19.1732 23.0416 19.8477C22.8436 20.5221 22.5429 21.1693 22.1392 21.7891C21.7356 22.4089 21.2551 22.957 20.6978 23.4336C20.1405 23.9102 19.4686 24.2904 18.6822 24.5742C17.8957 24.8581 17.0546 25 16.1588 25C14.7473 25 13.4556 24.6224 12.2838 23.8672C12.466 23.888 12.6692 23.8984 12.8931 23.8984C14.065 23.8984 15.1093 23.5391 16.0259 22.8203C15.4791 22.8099 14.9895 22.6419 14.5572 22.3164C14.1249 21.9909 13.828 21.5755 13.6666 21.0703C13.8384 21.0964 13.9973 21.1094 14.1431 21.1094C14.3671 21.1094 14.5884 21.0807 14.8072 21.0234C14.2239 20.9036 13.7408 20.6133 13.358 20.1523C12.9752 19.6914 12.7838 19.1562 12.7838 18.5469V18.5156C13.1379 18.7135 13.5181 18.8203 13.9244 18.8359C13.5806 18.6068 13.3072 18.3073 13.1041 17.9375C12.9009 17.5677 12.7994 17.1667 12.7994 16.7344C12.7994 16.276 12.914 15.8516 13.1431 15.4609C13.7733 16.237 14.5403 16.8581 15.4439 17.3242C16.3476 17.7904 17.315 18.0495 18.3463 18.1016C18.3046 17.9036 18.2838 17.7109 18.2838 17.5234C18.2838 16.8255 18.5298 16.2305 19.022 15.7383C19.5142 15.2461 20.1093 15 20.8072 15C21.5364 15 22.1509 15.2656 22.6509 15.7969C23.2186 15.6875 23.7525 15.4844 24.2525 15.1875C24.0598 15.7865 23.69 16.25 23.1431 16.5781C23.6275 16.526 24.1119 16.3958 24.5963 16.1875Z" fill="white"/>
</g>
<defs>
<clipPath id="clip0_0_241">
<rect width="13" height="14" fill="white" transform="matrix(1 0 0 -1 11.94 27)"/>
</clipPath>
</defs>
</svg>
